<svg version="1.0" xmlns="http://www.w3.org/2000/svg" width="24" height="24" viewBox="0 0 512.000000 512.000000">
  <g transform="translate(0.000000,512.000000) scale(0.100000,-0.100000)" fill="#ffffff" stroke="none">
    <path
      d="M0 3910 l0 -1210 75 -150 75 -150 0 -405 0 -405 -75 -150 -75 -150 0
-645 0 -645 1288 1 1287 0 125 63 125 64 127 -64 128 -64 1020 0 1020 0 0
1028 -1 1027 -62 122 -63 122 63 123 62 123 0 1288 1 1287 -325 0 -325 0 -125
-62 -125 -63 -125 63 -125 62 -635 0 -635 0 -150 -75 -150 -75 -401 0 -401 0
-149 75 -148 75 -650 0 -651 0 0 -1210z m3993 82 l227 -227 -2 -443 -3 -442
-670 670 -670 670 445 0 445 0 228 -228z m-1287 -912 c823 -619 1499 -1131
1501 -1137 3 -7 -28 -245 -68 -528 l-74 -515 -295 1 -295 0 -110 131 c-60 72
-148 176 -195 232 l-85 101 -39 161 -39 161 -156 67 -156 66 -385 453 c-211
248 -614 721 -894 1050 l-509 599 144 144 c79 79 147 143 151 142 4 -2 681
-509 1504 -1128z m-908 -2178 l-443 -2 -227 227 -228 228 0 445 0 445 670
-670 670 -670 -442 -3z"
    />
  </g>
</svg>