<svg version="1.0" xmlns="http://www.w3.org/2000/svg"
 preserveAspectRatio="xMidYMid meet">

<g transform="translate(0.000000,156.000000) scale(0.100000,-0.100000)"
fill="#000000" stroke="none">
<path d="M1076 1492 c-4 -12 -5 -26 -2 -31 9 -14 -4 -41 -20 -41 -7 0 -16 11
-20 24 -5 22 -40 46 -66 46 -6 0 -26 -16 -45 -36 -30 -33 -37 -35 -59 -26 -13
7 -24 18 -24 26 0 21 -19 30 -35 16 -8 -6 -23 -9 -35 -5 -11 3 -20 2 -20 -2 0
-14 51 -59 88 -77 17 -9 32 -21 32 -26 0 -13 -13 -13 -27 1 -12 12 -39 -43
-29 -60 4 -5 -3 -28 -15 -50 -20 -39 -20 -42 -4 -85 17 -44 17 -46 -4 -79 -12
-19 -28 -37 -36 -40 -7 -3 -24 -24 -36 -45 -26 -44 -79 -79 -101 -66 -7 5 -18
9 -24 10 -7 1 -60 32 -120 68 -97 59 -113 66 -161 66 -29 0 -53 -3 -53 -6 0
-3 14 -25 31 -49 28 -39 45 -50 143 -90 61 -26 115 -51 121 -56 5 -5 17 -9 27
-9 10 0 18 -6 18 -14 0 -8 9 -18 20 -21 11 -3 20 -12 20 -20 0 -7 11 -20 24
-28 21 -14 26 -14 46 0 21 15 23 15 32 -1 13 -24 26 -20 43 14 21 40 19 50
-10 50 -20 0 -25 5 -25 26 0 26 53 104 71 104 14 0 11 -50 -7 -126 -10 -47
-14 -93 -10 -148 3 -45 7 -105 8 -135 l3 -55 -125 -48 c-143 -55 -170 -68
-170 -81 0 -18 107 2 206 38 53 19 105 35 115 35 33 0 21 -39 -25 -87 -46 -47
-46 -45 -19 -92 2 -2 9 2 18 9 10 8 15 9 15 1 0 -17 60 -14 66 4 6 15 37 29
74 34 17 2 11 18 -15 42 -28 27 -30 45 -14 99 15 51 49 67 77 37 31 -34 42
-62 58 -143 15 -81 13 -89 -32 -149 -44 -59 -43 -120 2 -91 30 20 40 20 24 1
-11 -13 -8 -15 17 -15 16 0 34 5 39 10 7 7 19 8 36 1 25 -9 25 -9 23 32 -1 23
-9 57 -19 76 -12 23 -16 45 -12 70 19 112 19 150 -2 185 -19 32 -20 38 -6 65
8 16 21 32 29 35 8 3 15 14 15 24 0 11 7 25 15 32 8 7 15 18 15 25 0 21 67 73
110 86 22 7 45 18 51 26 6 7 18 13 25 13 10 0 8 -6 -5 -19 -11 -11 -26 -30
-34 -43 -23 -37 -74 -226 -81 -302 -4 -38 -12 -78 -17 -88 -6 -11 -13 -75 -16
-143 -5 -122 -5 -123 19 -139 18 -12 37 -14 72 -10 70 10 70 12 0 157 -13 26
-12 32 6 57 11 15 20 42 20 60 0 20 18 62 50 116 28 47 50 89 50 94 0 19 25
10 85 -31 33 -22 81 -51 108 -65 53 -27 56 -34 27 -52 -17 -10 -20 -22 -19
-65 0 -28 -4 -85 -11 -125 -11 -66 -10 -75 5 -92 24 -27 80 -36 113 -19 15 7
28 14 29 14 2 1 -6 20 -17 43 -12 24 -24 63 -29 88 -7 38 -6 46 10 54 10 6 19
22 21 37 3 26 5 25 25 -19 12 -27 29 -48 37 -48 20 0 20 -1 -9 72 -14 34 -25
72 -25 85 0 38 -49 124 -108 188 -85 94 -91 124 -22 125 14 0 35 7 46 15 19
13 23 12 42 -10 30 -34 50 -23 57 33 6 51 12 64 64 140 l35 51 35 -19 c33 -16
68 -27 143 -44 22 -5 27 -12 30 -43 2 -27 8 -39 21 -41 12 -3 17 3 18 20 1 22
1 21 11 -4 18 -51 42 -28 52 48 6 49 5 53 -25 79 -76 63 -273 142 -324 129
-15 -4 -24 0 -28 10 -4 9 -13 13 -21 10 -11 -4 -18 5 -25 33 -12 41 -49 108
-57 101 -2 -3 3 -24 11 -48 22 -61 20 -80 -9 -80 -19 0 -27 9 -42 52 -11 28
-25 53 -32 56 -7 2 -11 0 -10 -5 1 -4 -28 -37 -66 -73 -37 -36 -75 -78 -84
-95 -16 -28 -17 -29 -20 -7 -2 12 7 42 19 67 12 25 19 48 16 52 -4 4 -27 -3
-51 -14 -43 -21 -74 -68 -92 -137 -5 -23 -11 -26 -49 -26 -41 0 -43 2 -59 43
-9 23 -16 53 -16 65 0 35 -46 129 -70 142 -16 9 -19 14 -10 20 9 6 9 9 0 15
-9 6 -9 9 0 15 7 4 -2 10 -24 14 -44 8 -57 26 -19 27 24 1 23 2 -13 12 -22 7
-48 20 -58 29 -16 16 -15 18 13 33 55 28 80 85 37 85 -13 0 -30 10 -38 22
l-15 23 -7 -23z m624 -373 c0 -35 -30 -72 -52 -64 -10 4 -17 -1 -20 -13 -7
-25 -48 -50 -48 -29 0 19 102 147 112 141 4 -3 8 -19 8 -35z m-507 -218 c-9
-14 -22 -36 -29 -49 -12 -23 -12 -23 -23 9 -9 27 -8 37 10 66 20 33 22 33 40
17 18 -16 18 -19 2 -43z m137 -15 c-31 -46 -48 -62 -56 -54 -4 5 74 98 82 98
3 0 -9 -20 -26 -44z"/>
</g>
</svg>
