<svg version="1.0" xmlns="http://www.w3.org/2000/svg"
 width="128px" height="128px" viewBox="0 0 64.000000 64.000000"
 preserveAspectRatio="xMidYMid meet">
<g transform="translate(0.000000,64.000000) scale(0.100000,-0.100000)"
fill="#fff" stroke="none">
<path d="M198 522 c-54 -31 -96 -61 -95 -67 4 -13 198 -125 217 -125 19 0 213
112 217 125 4 14 -192 125 -219 124 -13 0 -67 -26 -120 -57z m146 -8 c24 -9
21 -61 -4 -74 -22 -12 -34 2 -28 30 5 22 -29 23 -50 2 -18 -18 -42 -19 -42 -1
0 10 76 48 97 49 6 0 18 -3 27 -6z m61 -83 c7 -12 -31 -25 -45 -16 -6 4 -8 11
-5 16 8 12 42 12 50 0z"/>
<path d="M80 313 c0 -60 4 -114 9 -122 12 -18 204 -130 213 -124 14 8 9 218
-4 235 -15 18 -190 118 -207 118 -7 0 -11 -34 -11 -107z m110 10 c23 -13 50
-50 50 -68 0 -2 -10 -13 -21 -24 -17 -16 -26 -18 -41 -10 -19 10 -19 11 4 36
23 24 23 25 4 39 -11 8 -26 14 -33 14 -7 0 -13 7 -13 15 0 19 15 19 50 -2z
m-6 -119 c16 -6 23 -44 8 -44 -12 0 -32 23 -32 37 0 15 2 15 24 7z"/>
<path d="M441 365 c-52 -29 -98 -59 -102 -67 -11 -16 -12 -225 -1 -231 9 -6
201 106 213 124 14 23 11 229 -3 229 -7 0 -55 -25 -107 -55z m55 -46 c8 -14
-34 -106 -52 -113 -19 -7 -17 10 3 45 21 35 11 49 -17 24 -19 -18 -20 -17 -20
1 0 11 12 27 28 36 32 20 48 22 58 7z m-40 -154 c-3 -8 -10 -15 -16 -15 -14 0
-12 37 3 43 15 5 21 -8 13 -28z"/>
</g>
</svg>
